<?xml version="1.0" encoding="UTF-8" standalone="no"?>
<!-- Created with Inkscape (http://www.inkscape.org/) -->

<svg
   version="1.1"
   id="svg409"
   xml:space="preserve"
   width="800"
   height="600"
   viewBox="0 0 800 600.00002"
   sodipodi:docname="modelisation.svg"
   inkscape:version="1.1.1 (3bf5ae0d25, 2021-09-20)"
   xmlns:inkscape="http://www.inkscape.org/namespaces/inkscape"
   xmlns:sodipodi="http://sodipodi.sourceforge.net/DTD/sodipodi-0.dtd"
   xmlns="http://www.w3.org/2000/svg"
   xmlns:svg="http://www.w3.org/2000/svg"><defs
     id="defs413"><clipPath
       clipPathUnits="userSpaceOnUse"
       id="clipPath425"><path
         d="M 0,0 H 596 V 842 H 0 Z"
         id="path423" /></clipPath><clipPath
       clipPathUnits="userSpaceOnUse"
       id="clipPath443"><path
         d="M 0,0 H 596 V 842 H 0 Z"
         id="path441" /></clipPath><clipPath
       clipPathUnits="userSpaceOnUse"
       id="clipPath461"><path
         d="M 0,0 H 596 V 842 H 0 Z"
         id="path459" /></clipPath><clipPath
       clipPathUnits="userSpaceOnUse"
       id="clipPath479"><path
         d="M 0,0 H 596 V 842 H 0 Z"
         id="path477" /></clipPath><clipPath
       clipPathUnits="userSpaceOnUse"
       id="clipPath497"><path
         d="M 0,0 H 596 V 842 H 0 Z"
         id="path495" /></clipPath><clipPath
       clipPathUnits="userSpaceOnUse"
       id="clipPath515"><path
         d="M 0,0 H 596 V 842 H 0 Z"
         id="path513" /></clipPath><clipPath
       clipPathUnits="userSpaceOnUse"
       id="clipPath537"><path
         d="M 0,0 H 596 V 842 H 0 Z"
         id="path535" /></clipPath><clipPath
       clipPathUnits="userSpaceOnUse"
       id="clipPath563"><path
         d="M 0,0 H 596 V 842 H 0 Z"
         id="path561" /></clipPath><clipPath
       clipPathUnits="userSpaceOnUse"
       id="clipPath587"><path
         d="M 0,0 H 596 V 842 H 0 Z"
         id="path585" /></clipPath><clipPath
       clipPathUnits="userSpaceOnUse"
       id="clipPath609"><path
         d="M 0,0 H 596 V 842 H 0 Z"
         id="path607" /></clipPath><clipPath
       clipPathUnits="userSpaceOnUse"
       id="clipPath647"><path
         d="M 0,0 H 596 V 842 H 0 Z"
         id="path645" /></clipPath><clipPath
       clipPathUnits="userSpaceOnUse"
       id="clipPath665"><path
         d="M 0,0 H 596 V 842 H 0 Z"
         id="path663" /></clipPath><clipPath
       clipPathUnits="userSpaceOnUse"
       id="clipPath683"><path
         d="M 0,0 H 596 V 842 H 0 Z"
         id="path681" /></clipPath><clipPath
       clipPathUnits="userSpaceOnUse"
       id="clipPath701"><path
         d="M 0,0 H 596 V 842 H 0 Z"
         id="path699" /></clipPath><clipPath
       clipPathUnits="userSpaceOnUse"
       id="clipPath729"><path
         d="M 0,0 H 596 V 842 H 0 Z"
         id="path727" /></clipPath><clipPath
       clipPathUnits="userSpaceOnUse"
       id="clipPath747"><path
         d="M 0,0 H 596 V 842 H 0 Z"
         id="path745" /></clipPath><clipPath
       clipPathUnits="userSpaceOnUse"
       id="clipPath819"><path
         d="M 0,0 H 596 V 842 H 0 Z"
         id="path817" /></clipPath><clipPath
       clipPathUnits="userSpaceOnUse"
       id="clipPath841"><path
         d="M 0,0 H 596 V 842 H 0 Z"
         id="path839" /></clipPath><clipPath
       clipPathUnits="userSpaceOnUse"
       id="clipPath863"><path
         d="M 0,0 H 596 V 842 H 0 Z"
         id="path861" /></clipPath><clipPath
       clipPathUnits="userSpaceOnUse"
       id="clipPath881"><path
         d="M 0,0 H 596 V 842 H 0 Z"
         id="path879" /></clipPath><clipPath
       clipPathUnits="userSpaceOnUse"
       id="clipPath899"><path
         d="M 0,0 H 596 V 842 H 0 Z"
         id="path897" /></clipPath></defs><sodipodi:namedview
     id="namedview411"
     pagecolor="#ffffff"
     bordercolor="#cccccc"
     borderopacity="1"
     inkscape:pageshadow="0"
     inkscape:pageopacity="1"
     inkscape:pagecheckerboard="0"
     showgrid="false"
     width="800px"
     inkscape:zoom="0.92172518"
     inkscape:cx="487.67248"
     inkscape:cy="261.46622"
     inkscape:window-width="1920"
     inkscape:window-height="986"
     inkscape:window-x="-11"
     inkscape:window-y="-11"
     inkscape:window-maximized="1"
     inkscape:current-layer="g417" /><g
     id="g415"
     inkscape:groupmode="layer"
     inkscape:label="groupe"
     transform="matrix(1.3333333,0,0,1.3333333,0,3.3396326e-5)"><g
       id="g417"><g
         id="g419"
         transform="translate(4.0684579,-51.26257)"><g
           id="g421" /><g
           id="g435"><g
             clip-path="url(#clipPath425)"
             opacity="0.857143"
             id="g433"><g
               id="g431"><g
                 id="g429"><path
                   d="m 539.215,354.742 c 0,56.613 -112.844,102.504 -252.047,102.504 -139.203,0 -252.047,-45.891 -252.047,-102.504 0,-56.609 112.844,-102.5 252.047,-102.5 139.203,0 252.047,45.891 252.047,102.5 z"
                   style="fill:none;stroke:#000000;stroke-width:1.96384;stroke-linecap:square;stroke-linejoin:miter;stroke-miterlimit:4;stroke-dasharray:0.196384, 0.196384;stroke-dashoffset:0.19638;stroke-opacity:1"
                   id="path427" /></g></g></g></g></g><g
         id="g437"
         transform="translate(4.0684579,-51.26257)"><g
           id="g439" /><g
           id="g453"><g
             clip-path="url(#clipPath443)"
             opacity="0.857143"
             id="g451"><g
               id="g449"><g
                 transform="scale(0.978605,1)"
                 id="g447"><path
                   d="m 218.978,280.668 -43.058,24.527 -42.77,-25.027 0.287,-49.559 43.062,-24.523 42.77,25.027 z"
                   style="fill:#ffaaaa;fill-opacity:1;fill-rule:nonzero;stroke:#000000;stroke-width:1.69657;stroke-linecap:square;stroke-linejoin:miter;stroke-miterlimit:4;stroke-dasharray:0.169657, 0.169657;stroke-dashoffset:0.169654;stroke-opacity:1"
                   id="path445" /></g></g></g></g></g><g
         id="g455"
         transform="translate(4.0684579,-51.26257)"><g
           id="g457" /><g
           id="g471"><g
             clip-path="url(#clipPath461)"
             opacity="0.857143"
             id="g469"><g
               id="g467"><g
                 transform="scale(1,0.975021)"
                 id="g465"><path
                   d="m 171.551,266.485 -18.985,11.169 -19.164,-10.857 -0.179,-22.027 18.984,-11.169 19.164,10.857 z"
                   style="fill:#ffaaaa;fill-opacity:1;fill-rule:nonzero;stroke:#000000;stroke-width:1.80911;stroke-linecap:square;stroke-linejoin:miter;stroke-miterlimit:4;stroke-dasharray:0.180911, 0.180911;stroke-dashoffset:0.180908;stroke-opacity:1"
                   id="path463" /></g></g></g></g></g><g
         id="g473"
         transform="translate(4.0684579,-51.26257)"><g
           id="g475" /><g
           id="g489"><g
             clip-path="url(#clipPath479)"
             opacity="0.857143"
             id="g487"><g
               id="g485"><g
                 transform="scale(1,0.975021)"
                 id="g483"><path
                   d="m 209.703,266.172 -18.984,11.17 -19.168,-10.857 -0.18,-22.027 18.988,-11.17 19.164,10.857 z"
                   style="fill:#ffaaaa;fill-opacity:1;fill-rule:nonzero;stroke:#000000;stroke-width:1.80911;stroke-linecap:square;stroke-linejoin:miter;stroke-miterlimit:4;stroke-dasharray:0.180911, 0.180911;stroke-dashoffset:0.180908;stroke-opacity:1"
                   id="path481" /></g></g></g></g></g><g
         id="g509"
         transform="translate(4.0684579,-51.26257)"><g
           id="g511" /><g
           id="g525"><g
             clip-path="url(#clipPath515)"
             opacity="0.857143"
             id="g523"><g
               id="g521"><g
                 id="g519"><path
                   d="m 473.836,354.719 c 0,24.25 -35.387,43.906 -79.035,43.906 -43.653,0 -79.039,-19.656 -79.039,-43.906 0,-24.254 35.386,-43.91 79.039,-43.91 43.648,0 79.035,19.656 79.035,43.91 z"
                   style="fill:#ffaaaa;fill-opacity:1;fill-rule:nonzero;stroke:#000000;stroke-width:3.13512;stroke-linecap:square;stroke-linejoin:miter;stroke-miterlimit:4;stroke-dasharray:0.313512, 0.313512;stroke-dashoffset:0.313506;stroke-opacity:1"
                   id="path517" /></g></g></g></g></g><text
         style="font-variant:normal;font-weight:normal;font-size:29.9999px;font-family:Verdana;-inkscape-font-specification:Verdana;writing-mode:lr-tb;fill:#000000;fill-opacity:1;fill-rule:nonzero;stroke:none"
         id="text529"
         x="180.29156"
         y="381.39148"><tspan
           x="180.29156 200.78149 219.47144 238.16138 250.94133 268.79129 287.75122 299.57117 307.79117 323.39111 338.99106 356.991 375.68094"
           y="381.39148"
           sodipodi:role="line"
           id="tspan527">Apprentissage</tspan></text><g
         id="g531"
         transform="translate(4.0684579,-51.26257)"><g
           id="g533" /><g
           id="g547"><g
             clip-path="url(#clipPath537)"
             opacity="0.857143"
             id="g545"><g
               id="g543"><g
                 id="g541"><path
                   d="M 132.234,126.898 H 193 v 35.168 h -60.766 z"
                   style="fill:#ffaaaa;fill-opacity:1;fill-rule:nonzero;stroke:#000000;stroke-width:1.67832;stroke-linecap:square;stroke-linejoin:miter;stroke-miterlimit:4;stroke-dasharray:0.167832, 0.167832;stroke-dashoffset:0.167825;stroke-opacity:1"
                   id="path539" /></g></g></g></g></g><text
         style="font-variant:normal;font-weight:normal;font-size:10px;font-family:Verdana;-inkscape-font-specification:Verdana;writing-mode:lr-tb;fill:#000000;fill-opacity:1;fill-rule:nonzero;stroke:none"
         id="text551"
         x="143.40765"
         y="93.638489"><tspan
           x="143.40765 150.23766 152.97765 156.91765 162.86766 166.37766 174.55766 180.50768"
           y="93.638489"
           sodipodi:role="line"
           id="tspan549">Site web</tspan></text><text
         style="font-variant:normal;font-weight:normal;font-size:0.999996px;font-family:Verdana;-inkscape-font-specification:Verdana;writing-mode:lr-tb;fill:#000000;fill-opacity:1;fill-rule:nonzero;stroke:none;stroke-width:0.999998"
         id="text555"
         x="228.29918"
         y="91.003914"><tspan
           x="228.29918"
           y="91.003914"
           id="tspan553"
           style="stroke-width:0.999998">A</tspan></text><g
         id="g557"
         transform="translate(4.0684579,-51.26257)"><g
           id="g559" /><g
           id="g573"><g
             clip-path="url(#clipPath563)"
             opacity="0.857143"
             id="g571"><g
               id="g569"><g
                 id="g567"><path
                   d="m 217.805,127.375 h 60.77 v 35.168 h -60.77 z"
                   style="fill:#ffaaaa;fill-opacity:1;fill-rule:nonzero;stroke:#000000;stroke-width:1.67832;stroke-linecap:square;stroke-linejoin:miter;stroke-miterlimit:4;stroke-dasharray:0.167832, 0.167832;stroke-dashoffset:0.167825;stroke-opacity:1"
                   id="path565" /></g></g></g></g></g><text
         style="font-variant:normal;font-weight:normal;font-size:10px;font-family:Verdana;-inkscape-font-specification:Verdana;writing-mode:lr-tb;fill:#000000;fill-opacity:1;fill-rule:nonzero;stroke:none"
         id="text579"
         x="228.29918"
         y="91.003914"><tspan
           x="228.29918 235.12918 241.35919 247.58919 250.32919 253.0692 258.2692 264.2692 268.2092 270.94919 277.00922"
           y="91.003914"
           sodipodi:role="line"
           id="tspan575">Application</tspan><tspan
           x="228.29918 231.80917 241.52919 247.58919 253.8192 256.5592 259.29919"
           y="103.50392"
           sodipodi:role="line"
           id="tspan577"> mobile</tspan></text><g
         id="g581"
         transform="translate(4.0684579,-51.26257)"><g
           id="g583" /><g
           id="g597"><g
             clip-path="url(#clipPath587)"
             opacity="0.857143"
             id="g595"><g
               id="g593"><g
                 id="g591"><path
                   d="m 305.129,128.324 h 60.77 v 35.168 h -60.77 z"
                   style="fill:#ffaaaa;fill-opacity:1;fill-rule:nonzero;stroke:#000000;stroke-width:1.67832;stroke-linecap:square;stroke-linejoin:miter;stroke-miterlimit:4;stroke-dasharray:0.167832, 0.167832;stroke-dashoffset:0.167825;stroke-opacity:1"
                   id="path589" /></g></g></g></g></g><text
         style="font-variant:normal;font-weight:normal;font-size:10px;font-family:Verdana;-inkscape-font-specification:Verdana;writing-mode:lr-tb;fill:#000000;fill-opacity:1;fill-rule:nonzero;stroke:none"
         id="text601"
         x="317.58163"
         y="96.565788"><tspan
           x="317.58163 322.57162 328.57162 334.80164 337.54163 343.49164 347.43164 351.37164"
           y="96.565788"
           sodipodi:role="line"
           id="tspan599">Tablette</tspan></text><g
         id="g603"
         transform="translate(4.0684579,-51.26257)"><g
           id="g605" /><g
           id="g619"><g
             clip-path="url(#clipPath609)"
             opacity="0.857143"
             id="g617"><g
               id="g615"><g
                 id="g613"><path
                   d="m 383.277,128.375 h 60.77 v 35.164 h -60.77 z"
                   style="fill:#ffaaaa;fill-opacity:1;fill-rule:nonzero;stroke:#000000;stroke-width:1.67832;stroke-linecap:square;stroke-linejoin:miter;stroke-miterlimit:4;stroke-dasharray:0.167832, 0.167832;stroke-dashoffset:0.167825;stroke-opacity:1"
                   id="path611" /></g></g></g></g></g><text
         transform="scale(0.88988264,1.1237437)"
         style="font-variant:normal;font-weight:normal;font-size:9.99997px;font-family:Verdana;-inkscape-font-specification:Verdana;writing-mode:lr-tb;fill:#000000;fill-opacity:1;fill-rule:nonzero;stroke:none;stroke-width:0.889883"
         id="text623"
         x="463.24417"
         y="87.464348"><tspan
           x="463.24417 469.27417"
           y="87.464348"
           sodipodi:role="line"
           id="tspan621"
           style="stroke-width:0.889883">PC</tspan></text><text
         style="font-variant:normal;font-weight:normal;font-size:8.00002px;font-family:Verdana;-inkscape-font-specification:Verdana;writing-mode:lr-tb;fill:#000000;fill-opacity:1;fill-rule:nonzero;stroke:none"
         id="text627"
         x="142.75238"
         y="229.41714"><tspan
           x="142.75238 147.51239 149.70439 154.46442 159.12042 163.88043 168.04045 170.84845 175.90446 180.70448 185.7605 190.74451 192.93652 197.09653 201.89655 206.88055 211.64056"
           y="229.41714"
           sodipodi:role="line"
           id="tspan625">élèves handicapés</tspan></text><text
         transform="scale(1.0484837,0.95375831)"
         style="font-variant:normal;font-weight:normal;font-size:7.6301px;font-family:Verdana;-inkscape-font-specification:Verdana;writing-mode:lr-tb;fill:#000000;fill-opacity:1;fill-rule:nonzero;stroke:none;stroke-width:0.953758"
         id="text633"
         x="132.20291"
         y="206.77458"><tspan
           x="132.20291 137.02513 141.6032 146.42542 151.17897 153.26961 157.23727 161.81532"
           y="206.77458"
           sodipodi:role="line"
           id="tspan629"
           style="stroke-width:0.953758">handicap</tspan><tspan
           x="132.20291 134.88107 139.39046 141.48111 145.44876 150.27098 154.8109"
           y="216.31221"
           sodipodi:role="line"
           id="tspan631"
           style="stroke-width:0.953758"> visuel</tspan></text><text
         transform="scale(0.99258262,1.0074728)"
         style="font-variant:normal;font-weight:normal;font-size:8.0598px;font-family:Verdana;-inkscape-font-specification:Verdana;writing-mode:lr-tb;fill:#000000;fill-opacity:1;fill-rule:nonzero;stroke:none;stroke-width:0.992583"
         id="text639"
         x="175.9845"
         y="195.75018"><tspan
           x="175.9845 181.07829 185.91418 191.00798 196.02924 198.23763 202.42873 207.2646"
           y="195.75018"
           sodipodi:role="line"
           id="tspan635"
           style="stroke-width:0.992583">handicap</tspan><tspan
           x="175.9845 178.81349 183.00459 187.88884 192.9101 198.00389 200.21228 203.38783 205.59622"
           y="205.82494"
           sodipodi:role="line"
           id="tspan637"
           style="stroke-width:0.992583"> cognitif</tspan></text><g
         id="g659"
         transform="translate(4.0684579,-51.26257)"><g
           id="g661" /><g
           id="g675"><g
             clip-path="url(#clipPath665)"
             opacity="0.857143"
             id="g673"><g
               id="g671"><g
                 id="g669"><path
                   d="m 381.078,353.949 c 0,7.434 -11.215,13.457 -25.047,13.457 -13.832,0 -25.047,-6.023 -25.047,-13.457 0,-7.429 11.215,-13.453 25.047,-13.453 13.832,0 25.047,6.024 25.047,13.453 z"
                   style="fill:#ffaaaa;fill-opacity:1;fill-rule:nonzero;stroke:#000000;stroke-width:3.13512;stroke-linecap:square;stroke-linejoin:miter;stroke-miterlimit:4;stroke-dasharray:0.313512, 0.313512;stroke-dashoffset:0.313506;stroke-opacity:1"
                   id="path667" /></g></g></g></g></g><g
         id="g12678"
         onclick="window.open('https://www.youtube.com/watch?v=Y6a27QAFQmw','blank')"
         transform="translate(4.0684579,-51.26257)"><g
           id="g491"><g
             id="g493" /><g
             id="g507"><g
               clip-path="url(#clipPath497)"
               opacity="0.857143"
               id="g505"><g
                 id="g503"><g
                   id="g501"><path
                     d="m 256.43,358.887 c 0,24.25 -35.387,43.91 -79.035,43.91 -43.653,0 -79.04,-19.66 -79.04,-43.91 0,-24.25 35.387,-43.91 79.04,-43.91 43.648,0 79.035,19.66 79.035,43.91 z"
                     style="fill:#ffaaaa;fill-opacity:1;fill-rule:nonzero;stroke:#000000;stroke-width:3.13512;stroke-linecap:square;stroke-linejoin:miter;stroke-miterlimit:4;stroke-dasharray:0.313512, 0.313512;stroke-dashoffset:0.313506;stroke-opacity:1"
                     id="path499" /></g></g></g></g></g><g
           id="g641"><g
             id="g643" /><g
             id="g657"><g
               clip-path="url(#clipPath647)"
               opacity="0.857143"
               id="g655"><g
                 id="g653"><g
                   id="g651"><path
                     d="m 159.383,355.402 c 0,7.434 -11.215,13.457 -25.047,13.457 -13.832,0 -25.043,-6.023 -25.043,-13.457 0,-7.429 11.211,-13.453 25.043,-13.453 13.832,0 25.047,6.024 25.047,13.453 z"
                     style="fill:#ffaaaa;fill-opacity:1;fill-rule:nonzero;stroke:#000000;stroke-width:3.13512;stroke-linecap:square;stroke-linejoin:miter;stroke-miterlimit:4;stroke-dasharray:0.313512, 0.313512;stroke-dashoffset:0.313506;stroke-opacity:1"
                     id="path649" /></g></g></g></g></g><g
           id="g677"><g
             id="g679" /><g
             id="g693"><g
               clip-path="url(#clipPath683)"
               opacity="0.857143"
               id="g691"><g
                 id="g689"><g
                   id="g687"><path
                     d="m 245.703,360.988 c 0,7.43 -11.211,13.453 -25.043,13.453 -13.832,0 -25.047,-6.023 -25.047,-13.453 0,-7.429 11.215,-13.453 25.047,-13.453 13.832,0 25.043,6.024 25.043,13.453 z"
                     style="fill:#ffaaaa;fill-opacity:1;fill-rule:nonzero;stroke:#000000;stroke-width:3.13512;stroke-linecap:square;stroke-linejoin:miter;stroke-miterlimit:4;stroke-dasharray:0.313512, 0.313512;stroke-dashoffset:0.313506;stroke-opacity:1"
                     id="path685" /></g></g></g></g></g><g
           id="g695"><g
             id="g697" /><g
             id="g711"><g
               clip-path="url(#clipPath701)"
               opacity="0.857143"
               id="g709"><g
                 id="g707"><g
                   id="g705"><path
                     d="m 210.715,335.531 c 0,7.434 -11.211,13.457 -25.043,13.457 -13.832,0 -25.047,-6.023 -25.047,-13.457 0,-7.429 11.215,-13.453 25.047,-13.453 13.832,0 25.043,6.024 25.043,13.453 z"
                     style="fill:#ffaaaa;fill-opacity:1;fill-rule:nonzero;stroke:#000000;stroke-width:3.13512;stroke-linecap:square;stroke-linejoin:miter;stroke-miterlimit:4;stroke-dasharray:0.313512, 0.313512;stroke-dashoffset:0.313506;stroke-opacity:1"
                     id="path703" /></g></g></g></g></g><text
           transform="translate(130.40429,382.93322)"
           style="font-variant:normal;font-weight:normal;font-size:8.00002px;font-family:Verdana;-inkscape-font-specification:Verdana;writing-mode:lr-tb;fill:#000000;fill-opacity:1;fill-rule:nonzero;stroke:none"
           id="text721"><tspan
             x="0 5.464015 9.6240263 13.784038 18.54405 22.704062 26.864075 29.05608 34.040092 36.232101 38.424107 40.616112 43.76812 48.528133 51.33614 56.320156 61.376167 64.184174 70.728195 75.488205"
             y="0"
             sodipodi:role="line"
             id="tspan713">Accessibilité du web</tspan><tspan
             x="-15.731307 -10.675293 -6.1072807 -1.3072675 0.88473845 5.9407525 10.740766 13.892775 16.08478 20.932793"
             y="-26.080809"
             sodipodi:role="line"
             id="tspan715">Evaluation</tspan><tspan
             x="34.774487 39.598499 43.006512 47.854523 52.838539 57.89455 62.054562 65.206573 67.398575 72.24659"
             y="-45.951958"
             sodipodi:role="line"
             id="tspan717">Production</tspan><tspan
             x="66.6511 70.811111 75.659126 80.715141 84.875153 89.931168 92.123177 95.275185 100.0752 103.2272 105.41921 110.26722"
             y="-18.629179"
             sodipodi:role="line"
             id="tspan719">consultation</tspan></text></g><g
         id="g723"
         transform="translate(4.0684579,-51.26257)"><g
           id="g725" /><g
           id="g739"><g
             clip-path="url(#clipPath729)"
             opacity="0.857143"
             id="g737"><g
               id="g735"><g
                 id="g733"><path
                   d="m 433.238,330.77 c 0,7.429 -11.215,13.453 -25.047,13.453 -13.832,0 -25.043,-6.024 -25.043,-13.453 0,-7.434 11.211,-13.458 25.043,-13.458 13.832,0 25.047,6.024 25.047,13.458 z"
                   style="fill:#ffaaaa;fill-opacity:1;fill-rule:nonzero;stroke:#000000;stroke-width:3.13512;stroke-linecap:square;stroke-linejoin:miter;stroke-miterlimit:4;stroke-dasharray:0.313512, 0.313512;stroke-dashoffset:0.313506;stroke-opacity:1"
                   id="path731" /></g></g></g></g></g><g
         id="g741"
         transform="translate(4.0684579,-51.26257)"><g
           id="g743" /><g
           id="g757"><g
             clip-path="url(#clipPath747)"
             opacity="0.857143"
             id="g755"><g
               id="g753"><g
                 id="g751"><path
                   d="m 462.633,358.918 c 0,7.43 -11.215,13.457 -25.047,13.457 -13.832,0 -25.047,-6.027 -25.047,-13.457 0,-7.43 11.215,-13.453 25.047,-13.453 13.832,0 25.047,6.023 25.047,13.453 z"
                   style="fill:#ffaaaa;fill-opacity:1;fill-rule:nonzero;stroke:#000000;stroke-width:3.13512;stroke-linecap:square;stroke-linejoin:miter;stroke-miterlimit:4;stroke-dasharray:0.313512, 0.313512;stroke-dashoffset:0.313506;stroke-opacity:1"
                   id="path749" /></g></g></g></g></g><text
         style="font-variant:normal;font-weight:normal;font-size:8.00002px;font-family:Verdana;-inkscape-font-specification:Verdana;writing-mode:lr-tb;fill:#000000;fill-opacity:1;fill-rule:nonzero;stroke:none"
         id="text763"
         x="369.61447"
         y="330.01474"><tspan
           x="369.61447 375.07849 379.23849 383.39853 388.15854 392.31854 395.12656 399.92657 404.98257 409.7106 412.51859 414.7106 416.90262 421.63062 425.03864 429.79865"
           y="330.01474"
           sodipodi:role="line"
           id="tspan759">Accès aux livres</tspan><tspan
           x="369.61447 374.37448 377.52649 380.3345 385.31851 390.16653 394.32654 399.38257 407.15857 411.91858 416.97461 420.12662"
           y="340.01477"
           sodipodi:role="line"
           id="tspan761">et documents</tspan></text><text
         style="font-variant:normal;font-weight:normal;font-size:6.00001px;font-family:Verdana;-inkscape-font-specification:Verdana;writing-mode:lr-tb;fill:#000000;fill-opacity:1;fill-rule:nonzero;stroke:none"
         id="text775"
         x="346.01752"
         y="296.89618"><tspan
           x="346.01752 349.35352 352.92352 356.04352 358.40753 362.19952 364.75552"
           y="296.89618"
           sodipodi:role="line"
           id="tspan765">Lecture</tspan><tspan
           x="346.01752 349.12552 351.57953 355.17953 356.82352 359.18753 362.75754 368.58954 372.15955 375.95157"
           y="304.39618"
           sodipodi:role="line"
           id="tspan767">Traitement</tspan><tspan
           x="346.01752 348.1235 351.86151 355.65353 357.75952 360.12354 363.69354 367.23953 369.60355"
           y="311.89621"
           sodipodi:role="line"
           id="tspan769"> du texte</tspan><tspan
           x="391.96945 395.07745 397.53146 401.13147 404.92346 408.04346 411.16348 413.71948 415.36349 419.10147 421.46548 423.1095 426.74548"
           y="281.57889"
           sodipodi:role="line"
           id="tspan771">Transcription</tspan><tspan
           x="421.77621 425.96423 429.60022 433.33224 436.82425 440.39426 442.95026 446.07025 447.71426 451.35028"
           y="309.72964"
           sodipodi:role="line"
           id="tspan773">Conversion</tspan></text><g
         id="g777"
         transform="translate(4.0684579,-51.26257)"><path
           d="m 413.98,163.523 -2.625,36.965 -8.964,109.586 -0.414,1.653"
           style="fill:none;stroke:#000000;stroke-width:0.749999;stroke-linecap:butt;stroke-linejoin:miter;stroke-miterlimit:4;stroke-dasharray:none;stroke-opacity:1"
           id="path779" /></g><g
         id="g781"
         transform="translate(4.0684579,-51.26257)"><path
           d="m 330.359,165.18 -4.25,56.922 -1.132,114.464 -1.243,-2.07"
           style="fill:none;stroke:#000000;stroke-width:0.749999;stroke-linecap:butt;stroke-linejoin:miter;stroke-miterlimit:4;stroke-dasharray:none;stroke-opacity:1"
           id="path783" /></g><g
         id="g785"
         transform="translate(4.0684579,-51.26257)"><path
           d="m 193,162.066 62.32,58.645 c 23.219,38.621 46.438,77.238 69.657,115.855"
           style="fill:none;stroke:#000000;stroke-width:0.749999;stroke-linecap:butt;stroke-linejoin:miter;stroke-miterlimit:4;stroke-dasharray:none;stroke-opacity:1"
           id="path787" /></g><g
         id="g789"
         transform="translate(4.0684579,-51.26257)"><path
           d="M 305.129,163.492 255.32,220.711"
           style="fill:none;stroke:#000000;stroke-width:0.749999;stroke-linecap:butt;stroke-linejoin:miter;stroke-miterlimit:4;stroke-dasharray:none;stroke-opacity:1"
           id="path791" /></g><g
         id="g793"
         transform="translate(4.0684579,-51.26257)"><path
           d="m 242.18,163.523 -69.457,42.563"
           style="fill:none;stroke:#000000;stroke-width:0.749999;stroke-linecap:butt;stroke-linejoin:miter;stroke-miterlimit:4;stroke-dasharray:none;stroke-opacity:1"
           id="path795" /></g><g
         id="g797"
         transform="translate(4.0684579,-51.26257)"><path
           d="M 305.129,163.492 172.723,206.086"
           style="fill:none;stroke:#000000;stroke-width:0.749999;stroke-linecap:butt;stroke-linejoin:miter;stroke-miterlimit:4;stroke-dasharray:none;stroke-opacity:1"
           id="path799" /></g><g
         id="g801"
         transform="translate(4.0684579,-51.26257)"><path
           d="m 252.527,163.109 2.793,57.602"
           style="fill:none;stroke:#000000;stroke-width:0.749999;stroke-linecap:butt;stroke-linejoin:miter;stroke-miterlimit:4;stroke-dasharray:none;stroke-opacity:1"
           id="path803" /></g><g
         id="g805"
         transform="translate(4.0684579,-51.26257)"><path
           d="m 163.523,163.938 162.586,58.164"
           style="fill:none;stroke:#000000;stroke-width:0.749999;stroke-linecap:butt;stroke-linejoin:miter;stroke-miterlimit:4;stroke-dasharray:none;stroke-opacity:1"
           id="path807" /></g><g
         id="g809"
         transform="translate(4.0684579,-51.26257)"><path
           d="m 163.523,163.938 247.832,36.55"
           style="fill:none;stroke:#000000;stroke-width:0.749999;stroke-linecap:butt;stroke-linejoin:miter;stroke-miterlimit:4;stroke-dasharray:none;stroke-opacity:1"
           id="path811" /></g><g
         id="g813"
         transform="translate(4.0684579,-51.26257)"><g
           id="g815" /><g
           id="g829"><g
             clip-path="url(#clipPath819)"
             opacity="0.857143"
             id="g827"><g
               id="g825"><g
                 transform="scale(0.978605,1)"
                 id="g823"><path
                   d="m 290.285,271.891 -29.55,16.964 -29.463,-17.109 0.084,-34.07 29.546,-16.965 29.467,17.109 z"
                   style="fill:#ffaaaa;fill-opacity:1;fill-rule:nonzero;stroke:#000000;stroke-width:1.69657;stroke-linecap:square;stroke-linejoin:miter;stroke-miterlimit:4;stroke-dasharray:0.169657, 0.169657;stroke-dashoffset:0.169654;stroke-opacity:1"
                   id="path821" /></g></g></g></g></g><text
         style="font-variant:normal;font-weight:normal;font-size:8.00002px;font-family:Verdana;-inkscape-font-specification:Verdana;writing-mode:lr-tb;fill:#000000;fill-opacity:1;fill-rule:nonzero;stroke:none"
         id="text833"
         x="235.89832"
         y="203.75026"><tspan
           x="235.89832 240.95433 246.01035 250.17036 254.93037 257.12238 262.10638 267.16241 271.9624 277.01843 280.17044"
           y="203.75026"
           sodipodi:role="line"
           id="tspan831">Enseignants</tspan></text><g
         id="g835"
         transform="translate(4.0684579,-51.26257)"><g
           id="g837" /><g
           id="g851"><g
             clip-path="url(#clipPath841)"
             opacity="0.857143"
             id="g849"><g
               id="g847"><g
                 transform="scale(0.978605,1)"
                 id="g845"><path
                   d="m 362.618,273.281 -29.551,16.961 -29.462,-17.105 0.084,-34.075 29.55,-16.96 29.462,17.109 z"
                   style="fill:#ffaaaa;fill-opacity:1;fill-rule:nonzero;stroke:#000000;stroke-width:1.69657;stroke-linecap:square;stroke-linejoin:miter;stroke-miterlimit:4;stroke-dasharray:0.169657, 0.169657;stroke-dashoffset:0.169654;stroke-opacity:1"
                   id="path843" /></g></g></g></g></g><text
         style="font-variant:normal;font-weight:normal;font-size:8.00002px;font-family:Verdana;-inkscape-font-specification:Verdana;writing-mode:lr-tb;fill:#000000;fill-opacity:1;fill-rule:nonzero;stroke:none"
         id="text855"
         x="317.03879"
         y="203.75027"><tspan
           x="317.03879 322.50281 327.55881 333.02283"
           y="203.75027"
           sodipodi:role="line"
           id="tspan853">AESH</tspan></text><g
         id="g857"
         transform="translate(4.0684579,-51.26257)"><g
           id="g859" /><g
           id="g873"><g
             clip-path="url(#clipPath863)"
             opacity="0.857143"
             id="g871"><g
               id="g869"><g
                 transform="scale(0.978605,1)"
                 id="g867"><path
                   d="m 462.832,275.074 -43.062,24.528 -42.771,-25.032 0.292,-49.554 43.058,-24.528 42.77,25.032 z"
                   style="fill:#ffaaaa;fill-opacity:1;fill-rule:nonzero;stroke:#000000;stroke-width:1.69657;stroke-linecap:square;stroke-linejoin:miter;stroke-miterlimit:4;stroke-dasharray:0.169657, 0.169657;stroke-dashoffset:0.169654;stroke-opacity:1"
                   id="path865" /></g></g></g></g></g><g
         id="g875"
         transform="translate(4.0684579,-51.26257)"><g
           id="g877" /><g
           id="g891"><g
             clip-path="url(#clipPath881)"
             opacity="0.857143"
             id="g889"><g
               id="g887"><g
                 transform="scale(1,0.975021)"
                 id="g885"><path
                   d="m 410.188,260.748 -18.989,11.169 -19.164,-10.857 -0.18,-22.027 18.985,-11.169 19.168,10.857 z"
                   style="fill:#ffaaaa;fill-opacity:1;fill-rule:nonzero;stroke:#000000;stroke-width:1.80911;stroke-linecap:square;stroke-linejoin:miter;stroke-miterlimit:4;stroke-dasharray:0.180911, 0.180911;stroke-dashoffset:0.180908;stroke-opacity:1"
                   id="path883" /></g></g></g></g></g><g
         id="g893"
         transform="translate(4.0684579,-51.26257)"><g
           id="g895" /><g
           id="g909"><g
             clip-path="url(#clipPath899)"
             opacity="0.857143"
             id="g907"><g
               id="g905"><g
                 transform="scale(1,0.975021)"
                 id="g903"><path
                   d="m 448.336,260.435 -18.984,11.17 -19.164,-10.857 -0.18,-22.027 18.984,-11.17 19.164,10.857 z"
                   style="fill:#ffaaaa;fill-opacity:1;fill-rule:nonzero;stroke:#000000;stroke-width:1.80911;stroke-linecap:square;stroke-linejoin:miter;stroke-miterlimit:4;stroke-dasharray:0.180911, 0.180911;stroke-dashoffset:0.180908;stroke-opacity:1"
                   id="path901" /></g></g></g></g></g><text
         transform="scale(0.99709579,1.0029127)"
         style="font-variant:normal;font-weight:normal;font-size:6.0175px;font-family:Verdana;-inkscape-font-specification:Verdana;writing-mode:lr-tb;fill:#000000;fill-opacity:1;fill-rule:nonzero;stroke:none;stroke-width:0.997096"
         id="text917"
         x="377.01819"
         y="186.50389"><tspan
           x="377.01819 382.08493 383.7337 387.53677 389.18558 392.31467 394.68558 398.26599 400.82944 404.40985 406.52197 410.27087 413.85129"
           y="186.50389"
           sodipodi:role="line"
           id="tspan911"
           style="stroke-width:0.997096">Ministère de </tspan><tspan
           x="377.01819 378.66699 380.27966 383.86008 387.60898 391.41205 394.54114 398.15164 400.52255 402.17133 405.81793 409.621"
           y="194.02577"
           sodipodi:role="line"
           id="tspan913"
           style="stroke-width:0.997096">l'éducation </tspan><tspan
           x="377.01819 380.82126 384.43173 386.80264 388.45145 392.09805 395.90109 399.5116 401.1604"
           y="201.54764"
           sodipodi:role="line"
           id="tspan915"
           style="stroke-width:0.997096">nationale</tspan></text><text
         style="font-variant:normal;font-weight:normal;font-size:6.00001px;font-family:Verdana;-inkscape-font-specification:Verdana;writing-mode:lr-tb;fill:#000000;fill-opacity:1;fill-rule:nonzero;stroke:none"
         id="text921"
         x="414.73849"
         y="187.04713"><tspan
           x="414.73849 419.35849 422.9285 426.6665 430.26651 432.82251 435.18652 438.75653 444.58853 448.15854 451.95053"
           y="187.04713"
           sodipodi:role="line"
           id="tspan919">Département</tspan></text><text
         transform="scale(0.96684211,1.034295)"
         style="font-variant:normal;font-weight:normal;font-size:7.73476px;font-family:Verdana;-inkscape-font-specification:Verdana;writing-mode:lr-tb;fill:#000000;fill-opacity:1;fill-rule:nonzero;stroke:none;stroke-width:0.966842"
         id="text925"
         x="404.95172"
         y="218.60811"><tspan
           x="404.95172 411.03897 414.33398 419.15274 423.79358 428.68195 430.80127 434.82336 439.4642 442.51169 444.63101 449.3183"
           y="218.60811"
           sodipodi:role="line"
           id="tspan923"
           style="stroke-width:0.966842">Organisation</tspan></text><g
         id="g927"
         transform="translate(4.0684579,-51.26257)"><path
           d="m 163.523,163.938 9.2,42.148"
           style="fill:none;stroke:#000000;stroke-width:0.749999;stroke-linecap:butt;stroke-linejoin:miter;stroke-miterlimit:4;stroke-dasharray:none;stroke-opacity:1"
           id="path929" /></g><g
         id="g931"
         transform="translate(4.0684579,-51.26257)"><path
           d="m 172.156,305.195 -14.844,9.016 -0.828,0.828"
           style="fill:none;stroke:#000000;stroke-width:0.749999;stroke-linecap:butt;stroke-linejoin:miter;stroke-miterlimit:4;stroke-dasharray:none;stroke-opacity:1"
           id="path933" /></g><g
         id="g935"
         transform="translate(4.0684579,-51.26257)"><path
           d="m 255.156,288.855 -21.258,38.192 0.829,-0.828"
           style="fill:none;stroke:#000000;stroke-width:0.749999;stroke-linecap:butt;stroke-linejoin:miter;stroke-miterlimit:4;stroke-dasharray:none;stroke-opacity:1"
           id="path937" /></g><g
         id="g939"
         transform="translate(4.0684579,-51.26257)"><path
           d="m 325.941,290.242 -92.043,36.805"
           style="fill:none;stroke:#000000;stroke-width:0.749999;stroke-linecap:butt;stroke-linejoin:miter;stroke-miterlimit:4;stroke-dasharray:none;stroke-opacity:1"
           id="path941" /></g></g></g></svg>
